Coordinates
version=1
nRows=24
nColumns=24
inDegrees=yes

Units are S.I. units (second, meters, Newtons, ...)
Angles are in degrees.

endheader
time	pelvis_tilt	pelvis_list	pelvis_rotation	pelvis_tx	pelvis_ty	pelvis_tz	hip_flexion_r	hip_adduction_r	hip_rotation_r	knee_angle_r	ankle_angle_r	subtalar_angle_r	mtp_angle_r	hip_flexion_l	hip_adduction_l	hip_rotation_l	knee_angle_l	ankle_angle_l	subtalar_angle_l	mtp_angle_l	lumbar_extension	lumbar_bending	lumbar_rotation
      0.94666667	     -1.44256252	     -1.79431367	      1.10661508	     -0.39093824	      0.99242980	      0.34453484	     11.83098966	      6.41449766	     -4.57630067	    -18.66535590	      7.86708764	     -2.50128730	      3.86159851	     16.02963867	     -0.90953438	      1.41767880	    -71.47841658	     -7.69857785	    -12.08956172	      0.39712040	      1.51827076	      5.31683733	      3.03447088
      0.95083333	     -1.39653685	     -1.72308008	      0.92809925	     -0.38621315	      0.99302556	      0.34483715	     11.31464183	      6.38255320	     -4.46805453	    -18.33631489	      7.80375264	     -2.26807200	      3.86057060	     16.60681286	     -0.83076511	      1.33588983	    -71.51320215	     -7.16024227	    -12.53627301	      0.33234455	      1.39144463	      5.23466036	      3.31094020
      0.95500000	     -1.38080011	     -1.63429086	      0.75988829	     -0.38148089	      0.99355634	      0.34509754	     10.84272583	      6.32253284	     -4.37857010	    -18.04080499	      7.84013826	     -2.14408218	      3.86145406	     17.20583319	     -0.72510481	      1.27043615	    -71.50181847	     -6.56648306	    -12.90209667	      0.31160718	      1.33518257	      5.14635925	      3.37633489
      0.95916667	     -1.32784158	     -1.55875295	      0.57742793	     -0.37676396	      0.99409124	      0.34539024	     10.32819289	      6.27743601	     -4.28481628	    -17.72889743	      7.81152116	     -1.87119368	      3.85739599	     17.75772168	     -0.65046845	      1.18362059	    -71.45283599	     -6.00169446	    -13.25137719	      0.20145069	      1.21098167	      5.05660587	      3.64078593
      0.96333333	     -1.27694225	     -1.48089101	      0.40194598	     -0.37205583	      0.99461285	      0.34564908	      9.81850872	      6.22608980	     -4.18273980	    -17.42523464	      7.82919305	     -1.67795744	      3.85133588	     18.30189058	     -0.56650315	      1.11376676	    -71.35788879	     -5.42094575	    -13.54865386	      0.07804202	      1.09361231	      4.97684451	      3.79147644
      0.96750000	     -1.25831353	     -1.39717396	      0.22170287	     -0.36737825	      0.99505250	      0.34591499	      9.35980250	      6.16647560	     -4.07767089	    -17.15284076	      7.86089595	     -1.53737373	      3.84876224	     18.87728475	     -0.48106619	      1.03784129	    -71.22776867	     -4.83494814	    -13.82761472	      0.02331201	      1.01582810	      4.88276888	      3.86772999
      0.97166667	     -1.22865295	     -1.31410383	      0.04496664	     -0.36267721	      0.99548851	      0.34615711	      8.87459423	      6.10305100	     -3.97357369	    -16.84762014	      7.88145927	     -1.30555466	      3.83851101	     19.42573792	     -0.39389598	      0.97653922	    -71.04741402	     -4.25735647	    -14.00063793	     -0.11045217	      0.92864480	      4.80014813	      4.08169328
      0.97583333	     -1.18727951	     -1.23800711	     -0.13176903	     -0.35798761	      0.99591898	      0.34639919	      8.38107947	      6.04585350	     -3.86341250	    -16.55249230	      7.92029643	     -1.12930056	      3.82655375	     19.95202611	     -0.31967782	      0.91318282	    -70.82622458	     -3.67696216	    -14.16073023	     -0.23819036	      0.82732166	      4.71829040	      4.21819405
      0.98000000	     -1.18958076	     -1.15823737	     -0.30827268	     -0.35332663	      0.99624505	      0.34661074	      7.95085320	      5.97892619	     -3.75812494	    -16.28874273	      7.97645105	     -1.00925102	      3.82358623	     20.52273941	     -0.23616497	      0.85610472	    -70.57212332	     -3.12010931	    -14.34293906	     -0.27487530	      0.78713705	      4.65014236	      4.27195785
      0.98416667	     -1.15211863	     -1.09644615	     -0.49588873	     -0.34867619	      0.99659279	      0.34688403	      7.47147547	      5.93535518	     -3.63488129	    -16.00638583	      8.01008353	     -0.81401208	      3.81413969	     21.04020443	     -0.19766626	      0.77974059	    -70.28422970	     -2.51360928	    -14.37181737	     -0.34894149	      0.67170626	      4.56208087	      4.42667904
      0.98833333	     -1.10161916	     -1.02682994	     -0.66094658	     -0.34399364	      0.99696043	      0.34709112	      6.96437112	      5.87425779	     -3.53648316	    -15.69948069	      8.06464154	     -0.62047983	      3.79837132	     21.52552328	     -0.13220033	      0.74070220	    -69.93879516	     -1.94592781	    -14.35346511	     -0.45228912	      0.56560551	      4.49170819	      4.60580956
      0.99250000	     -1.11280514	     -0.95071256	     -0.80976872	     -0.33933768	      0.99722385	      0.34725972	      6.53469300	      5.80293115	     -3.44207987	    -15.41414065	      8.14504408	     -0.51375597	      3.79674518	     22.07457608	     -0.04552882	      0.72639689	    -69.55217427	     -1.47228093	    -14.46709943	     -0.46952521	      0.54611934	      4.40708976	      4.64341921
      0.99666667	     -1.03538333	     -0.89543035	     -1.00429277	     -0.33467103	      0.99754777	      0.34751315	      6.00891226	      5.75309430	     -3.33061713	    -15.12544398	      8.18165087	     -0.28124249	      3.77805242	     22.50746396	     -0.02757607	      0.64470503	    -69.13970489	     -0.82860373	    -14.27261767	     -0.55991211	      0.38943065	      4.35209437	      4.85105440
      1.00083333	     -1.01163815	     -0.82763966	     -1.19185013	     -0.33005211	      0.99777725	      0.34772423	      5.55960856	      5.68569029	     -3.21639858	    -14.87181492	      8.24096186	     -0.12337457	      3.76689887	     22.99198443	      0.02181540	      0.58598216	    -68.68153977	     -0.27965725	    -14.23620524	     -0.61151591	      0.29533218	      4.28304412	      4.94451579
      1.00500000	     -0.96934708	     -0.78848046	     -1.33925541	     -0.32538645	      0.99800481	      0.34791009	      5.05994396	      5.64585073	     -3.13999757	    -14.55781654	      8.30640733	      0.06778325	      3.74452310	     23.44948544	      0.04221286	      0.56743846	    -68.19385529	      0.25154571	    -14.03788759	     -0.69854018	      0.20127886	      4.23870456	      5.10964272
      1.00916667	     -0.94119374	     -0.73703191	     -1.50399954	     -0.32074361	      0.99817688	      0.34809589	      4.59262364	      5.58852485	     -3.05512263	    -14.27806124	      8.37587814	      0.24333006	      3.72151330	     23.90769716	      0.07197208	      0.53116961	    -67.66458135	      0.77164497	    -13.87959111	     -0.78174311	      0.11586806	      4.18427054	      5.23542024
      1.01333333	     -0.89502957	     -0.69499938	     -1.66039996	     -0.31610073	      0.99836344	      0.34827195	      4.09938294	      5.53908665	     -2.97055661	    -13.98391053	      8.43785067	      0.41577333	      3.69646164	     24.33192590	      0.09278024	      0.50617703	    -67.09229690	      1.27473233	    -13.69453657	     -0.86386069	      0.00582164	      4.14313489	      5.35407430
      1.01750000	     -0.86849170	     -0.66371052	     -1.81478799	     -0.31145613	      0.99847302	      0.34844911	      3.62979944	      5.49910362	     -2.89269545	    -13.69480796	      8.50377016	      0.58349895	      3.67296872	     24.76802169	      0.09670382	      0.48099334	    -66.49201420	      1.76308549	    -13.49067087	     -0.93691747	     -0.07555512	      4.10758829	      5.46287583
      1.02166667	     -0.82615526	     -0.61614544	     -1.98106461	     -0.30680922	      0.99860425	      0.34862117	      3.14871680	      5.43671009	     -2.80551369	    -13.41701130	      8.56725563	      0.74697736	      3.65711429	     25.16287255	      0.11566819	      0.44127932	    -65.83435390	      2.23605785	    -13.30140312	     -0.98391721	     -0.17856304	      4.06073136	      5.55002127
      1.02583333	     -0.80793980	     -0.59685373	     -2.12186454	     -0.30217004	      0.99863299	      0.34877502	      2.68776944	      5.40357057	     -2.74622701	    -13.12562969	      8.63277972	      0.91895995	      3.64115101	     25.58461382	      0.10800660	      0.43251222	    -65.16480363	      2.68365814	    -13.07203875	     -1.03117511	     -0.24909208	      4.04052860	      5.65608128
      1.03000000	     -0.76344116	     -0.57608263	     -2.26636659	     -0.29751441	      0.99869993	      0.34892094	      2.19455408	      5.36477300	     -2.67790722	    -12.82761256	      8.69428420	      1.08692025	      3.62757999	     25.95465595	      0.10122189	      0.41735453	    -64.44394039	      3.10846599	    -12.85709019	     -1.07111457	     -0.35739648	      4.01846966	      5.75247232
      1.03416667	     -0.73113218	     -0.56259522	     -2.39866649	     -0.29285538	      0.99870435	      0.34905856	      1.71412876	      5.33192256	     -2.62580648	    -12.52918393	      8.75488694	      1.25354461	      3.61527273	     26.32741398	      0.08690824	      0.41163408	    -63.69364475	      3.51116841	    -12.63420976	     -1.10883908	     -0.44599907	      4.00280621	      5.84951487
      1.03833333	     -0.69370750	     -0.55487908	     -2.52700506	     -0.28818505	      0.99869378	      0.34918544	      1.22606440	      5.30205474	     -2.58264373	    -12.22723168	      8.81344902	      1.42512569	      3.60402061	     26.67691483	      0.06735408	      0.40973311	    -62.90317047	      3.88806293	    -12.41515647	     -1.14683092	     -0.53794591	      3.99229222	      5.94673132
      1.04250000	     -0.64318667	     -0.54741522	     -2.65111012	     -0.28350500	      0.99867457	      0.34930252	      0.72189773	      5.26857271	     -2.54541178	    -11.92220235	      8.87160682	      1.59872800	      3.59457758	     26.99510659	      0.04746746	      0.40486488	    -62.07359022	      4.24152948	    -12.21111914	     -1.18410734	     -0.64655399	      3.98081354	      6.04205607
